<?xml version="1.0" encoding="UTF-8"?>
<svg width="800" height="700" version="1.1" viewBox="0 0 800 700" xmlns="http://www.w3.org/2000/svg">
  <g>
    <rect x="175.2" y="552.33" width="8.0698" height="17.722" fill="#a4a4a4" stroke="#484848" stroke-linecap="round" stroke-linejoin="round"/>
    <rect x="172.9" y="552.96" width="9.7901" height="4.0727" ry="0" fill="#e3e3e3" stroke-width=".44646"/>
    <rect x="172.9" y="565.35" width="9.7901" height="4.0727" ry="0" opacity=".35" stroke-width=".44646"/>
    <g fill="#a4a4a4" stroke="#484848" stroke-linecap="round" stroke-linejoin="round">
      <rect x="127.3" y="580.11" width="22.859" height="8.6114" ry="0"/>
      <rect x="125.4" y="588.75" width="26.711" height="8.5475" ry="0"/>
      <rect x="92.5" y="552.33" width="8.0698" height="17.722"/>
    </g>
    <rect x="93" y="552.9" width="9.7901" height="4.0727" ry="0" fill="#e3e3e3" stroke-width=".44646"/>
    <rect x="93.2" y="565.43" width="9.7901" height="4.0727" ry="0" opacity=".35" stroke-width=".44646"/>
    <rect x="100" y="541.27" width="75.591" height="38.88" fill="#a4a4a4" stroke="#484848" stroke-linecap="round" stroke-linejoin="round"/>
    <path d="m164.8 541.88h10.127v41.299h-10.127c2.9257-13.766 4.6668-27.533 0-41.299z" opacity=".32846" stroke-width=".44646"/>
    <g stroke="#484848">
      <path d="m96.6 563.74h10.34l9.6806 10.267h41.36l10.999-10.267h10.34v21.166h-82.721v-21.166z" fill="#a4a4a4" stroke-linecap="round" stroke-linejoin="round"/>
      <ellipse cx="124.3" cy="554.66" rx="8.8136" ry="8.8133" fill="#fff" stroke-width=".7847"/>
      <ellipse cx="150.8" cy="554.19" rx="8.8136" ry="8.8133" fill="#fff" stroke-width=".7847"/>
    </g>
    <circle cx="121.8" cy="556.9" r="5.5504"/>
    <circle cx="148.2" cy="556.59" r="5.5504"/>
    <g stroke-width=".44646">
      <path d="m101.2 562.3 0.633-19.146 33.071-0.4747-30.223 2.8482-3.4812 16.773z" fill="#e5e5e5"/>
      <path d="m169.2 564.35 9.494-0.0398v19.938h-15.19c1.3163-4.1287 2.108-8.5198-0.078-14.4l5.775-5.4978z" opacity=".32846"/>
      <path d="m97.9 568.6 0.06 15.177 27.652 0.0251-25.15-2.381-2.5624-12.821z" fill="#e5e5e5"/>
    </g>
    <path d="m135.1 522.01h2.8798l3.9876 19.273h-11.076l4.2091-19.273z" fill="#a4a4a4" stroke="#484848"/>
    <ellipse cx="136.7" cy="516.8" rx="6.978" ry="7.4211" fill="#604aff" stroke="#00054d"/>
    <path d="m131.6 513.88c3.1582-1.9063 6.5755-1.7172 10.184 0.0174-3.117-3.6913-6.3929-5.2732-10.184-0.0174z" fill="#fff" opacity=".62981" stroke-width=".44646"/>
    <path d="m130.6 518.87c4.5687 3.1178 8.7319 3.5185 12.257-0.35243-0.8966 5.1977-9.1864 8.1296-12.257 0.35243z" opacity=".35" stroke-width=".44646"/>
  </g>
  <g>
    <g fill-rule="evenodd">
      <path d="m402.1 603.71c1.3382-0.20588 2.6764-0.10294 3.9116 0.61761 3.9116-0.72055 6.7938-0.10291 8.5437 1.8529 1.4411-0.30879 2.9851 0.10294 4.4263 1.1323 4.0145 1.7499 6.8967 4.0145 9.1613 6.5879 3.7057 1.544 5.1468 3.3969 5.3527 5.4556 1.9558 1.4411 3.191 3.191 4.0145 5.1468l-11.323 16.161-35.307-4.4262-10.602-16.573z" fill="#fcfb98" stroke-width=".10294"/>
      <path d="m403 603.5-1.5441 3.9116c-6.5879 0.51467-8.029 2.5734-5.9703 5.8674 1.2352 1.4411-1.0294 2.6763-1.647 4.3233-0.6176 2.0587-1.3382 4.2204-2.3676 6.3821 0 5.5586-3.191 5.1468-2.8822 7.1026l2.2646 2.9851-19.661 20.484c-9.7789 1.5441-15.029 0.72057-16.47-2.0587-2.9852-1.0294-4.8381-4.3233-5.4557-9.8819-1.544-1.647-1.647-3.191-1.1323-4.838-0.2059-0.61761-0.3088-1.2352 0.103-1.8529-0.8235-2.6764-0.4118-4.1174 0.1029-5.4556 0.2058-2.0587 1.2352-3.8087 2.7793-5.3527-0.103-2.5734 1.4411-3.9116 3.4998-4.7351 1.647-5.2498 9.0584-8.8525 12.044-9.676 1.9558-1.7499 4.6322-2.7793 7.9261-3.191 1.647-0.72058 3.1911-1.2352 4.7351-1.4411 2.8822-1.8528 6.1762-2.1616 9.4701-2.1616 2.6763-0.92643 5.4556-1.2352 8.3379-0.61761z" fill="#b4d8ec" stroke-width=".10294"/>
      <path d="m397.3 657.75c0.7206 2.8822 2.0588 4.838 4.2205 5.6615 3.088 1.4411 5.4556 4.9409 7.9261 8.029 1.3381-0.72055 2.7792-1.3382 3.9115-2.3675l-11.735-13.999z" fill="#fff" stroke="#000" stroke-width=".20587"/>
      <path d="m400.7 656.93c0 0.61761 0.1029 1.2352 0.7205 1.8528 0.2059 3.4998 1.5441 4.6322 3.3969 4.6322 8.2349 5.2497 14.514 5.5586 19.249 2.4705 1.9558-1.1323 5.0439-2.2646 5.2497-3.3969 2.2646-1.1323 3.6028-2.2646 4.8381-3.3969 1.9558-1.647 1.9558-4.5292 1.1323-8.132-19.558-0.61761-29.44 1.9558-34.587 5.9703z" fill="#fff" stroke="#000" stroke-width=".20587"/>
      <path d="m402.1 630.27 27.381 4.3233c4.0145 4.7351 8.029 9.4701 11.941 14.205-2.8823 2.7793-6.7938 3.1911-11.014 2.5734-1.7499 0.92644-4.4263 1.4411-8.4408 0-1.544 0.92644-3.0881 1.544-4.6321 2.0587-2.4705 1.3382-5.0439 1.7499-7.7202 1.7499-2.4705 0.41174-4.6321 0.72055-5.5586 0-1.544 1.2352-2.8822 1.7499-4.0145 2.0587-1.7499 1.0294-3.191 1.3382-4.6322 1.647-1.2352 2.9852-4.2203 4.2204-8.3378 4.2204-2.7792 1.2352-5.5585 1.3382-8.4407-1.2352-2.0588-1.0294-4.0146-2.2646-5.0439-4.7351-0.7206-0.82349-1.3382-1.544-1.9558-2.3675-0.3088-2.8822 0.4117-5.4556 2.5734-7.6173 2.0587-1.1323 2.3675-4.1174 3.6028-6.1762 2.3675-2.7793 6.1762-3.9116 10.191-4.7351 1.7499-1.7499 3.8087-2.9852 6.8968-2.7793 1.7499-1.7499 3.8086-3.294 7.2055-3.191z" fill="#b6cf9d" stroke-width=".10294"/>
      <path d="m437.3 624.4c-2.9851 2.6764-4.9409 4.3233-7.5143 7.4114-0.7205 2.5734-0.3088 5.1468 0.7206 7.7202-0.5147 2.7793 0.9264 4.941 2.5734 7.1026 3.2939 0.72056 4.9409 1.1323 8.5436 2.2646 1.0294-1.2352 1.8529-2.8822 2.6764-5.7644 0.7205-1.1323 0.6176-2.9851 0.3088-4.7351 0.6176-2.4705-0.5147-3.3969-2.0588-5.1468-0.4117-1.544-0.9264-3.4998-2.7792-5.0439 0.1029-1.0293-0.4118-2.6763-2.4705-3.8086z" fill="#f7a6b6" stroke-width=".10294"/>
    </g>
    <g fill="none" stroke="#000">
      <path d="m388.9 603.92c-3.1909-0.20588-6.7937 0.41173-9.8818 2.1616-1.544 0.10294-3.191 0.92643-4.5292 1.544-2.9852 0.20588-5.5586 1.2352-7.8232 2.9852-1.9558 0.61761-4.0145 1.3382-5.7644 2.8822-3.2939 1.9558-5.4556 4.2204-6.485 6.9997-2.1616 0.72055-3.2939 2.3675-3.2939 4.6321-1.5441 1.3382-2.5735 3.0881-2.7793 5.3527-0.8235 1.7499-0.7206 3.4998-0.2059 5.2497-0.1029 0.61764-0.5147 1.3382 0 1.9558-0.5147 1.1323-0.3088 2.2646 0.2059 3.3969 0.3088 0 0.4117 1.3382 0.8235 1.544 0.2058 2.9851 0.9264 4.941 1.8528 6.382 1.0294 1.647 2.0588 3.0881 3.7058 3.4998 1.6469 3.294 8.4407 3.0881 16.676 1.9558 0.7206 1.1323 1.4411 1.9558 2.1617 2.7793 1.1323 2.3675 2.9851 3.8087 5.2498 4.7351 1.8528 1.647 4.1174 2.7793 8.3378 1.1323 4.0145-0.20588 7.2055-1.1323 8.2348-4.2204 1.0294-0.10294 2.3676-0.61762 4.5293-1.647 1.544-0.30879 2.7793-1.1323 3.9116-2.0587 1.1323 0.82349 3.4998 0.41174 5.8673 0 3.7057-0.20587 6.2791-0.72054 7.5143-1.7499 1.75-0.51469 3.4999-1.0294 4.838-2.0587 3.0881 1.0294 5.9704 1.4411 8.3379 0 6.8967 0.72056 12.352-0.72055 13.793-8.132 1.1323-1.2352 0.8235-3.0881 0.3089-4.9409 1.1322-1.8529-0.4118-3.3969-1.9559-5.0439-0.2058-2.1616-1.2352-3.7057-2.7792-5.0439 0.2058-1.4411-0.3088-2.6763-2.3675-3.7057-0.8235-2.4705-2.2646-4.0145-4.0145-5.1468 0-2.5734-2.1617-4.2204-5.3527-5.4556-2.4705-2.9852-5.5586-5.1468-9.1614-6.6908-1.4411-1.1323-2.8822-1.2353-4.3233-1.0294-1.647-2.0587-4.5291-2.5734-8.4408-1.8529-1.0293-0.72055-2.1616-0.72055-3.191-0.72055-2.3675-0.20585-4.4262-0.30879-6.1762-0.30879-2.9852-0.61763-5.4556-0.20588-7.8232 0.61761z" stroke-width=".41174"/>
      <g stroke-width=".20587">
        <path d="m359.3 615.44c-1.1323 1.0294-1.1323 1.7499-0.4117 2.1617"/>
        <path d="m362.3 614.11c5.0439-3.4998 8.7496-3.8086 11.323-2.0587"/>
        <path d="m370.1 617.09c1.9558-1.4411 2.7793-4.2204 4.3233-6.1762 2.0587-3.0881 5.9703-0.51467 8.4408-0.72054"/>
        <path d="m357.3 620.28c-1.2353 1.4411 0.3088 2.6763 0.3088 4.0145"/>
        <path d="m353.4 624.5c1.7499-0.92644 1.3382-2.9851 2.9851-4.4263 1.1323-1.4411 4.838-1.544 6.1762-3.4998 1.4411-2.1617 3.2939-2.8822 5.4556-2.4705"/>
        <path d="m366.3 616.06c1.1323-1.1323 1.9558-2.2646 2.6763-3.3969"/>
        <path d="m373.3 616.27c1.1323-0.82349 1.647-1.8528 1.544-2.9851"/>
        <path d="m372.2 609.27c0.8235 0.30883 1.9558 0.10294 3.7057-1.1323"/>
        <path d="m374.6 607.72c-0.4117 0.51469-0.7205 1.0294-0.7205 1.4411"/>
        <path d="m379.1 606.08c0.2059 0.41176 0.5147 0.72055 0.8235 0.72055"/>
        <path d="m382 604.84c-0.4118 0.51466-0.7206 0.92642-0.9264 1.3382"/>
        <path d="m391 604.74c-0.8235 0.10295-1.647-0.10294-2.4705-0.82349"/>
        <path d="m392.5 610.92c-1.0294-0.20585-1.8528-0.6176-1.4411-2.9851 0.103-2.0587-1.544-2.6763-4.4262-2.4705-2.6763 0.20588-5.1468 0.41176-6.2791 1.0294-0.9264 0.92643-1.9558 1.8529-3.191 2.8822"/>
        <path d="m380.8 607.31c-0.7205 0.72054-0.9264 1.544-0.7205 2.3675"/>
        <path d="m388.4 606.59c-1.0294 1.7499-2.4705 3.294-3.4998 4.2204-2.1617 2.2646-3.6028 4.7351-1.3382 7.4114"/>
        <path d="m382.3 615.55c-1.1323 0.10294-1.9558-0.61761-2.6764-1.647-0.5147-1.0294-1.9558-1.0294-2.5734-2.9852"/>
        <path d="m390.7 611.43c-5.0438 0.20588-4.9409 3.3969-7.4113 4.5292"/>
        <path d="m394 616.47c0.4117-1.647-0.7206-2.2646-3.294-2.1617-1.2352 0.10294-2.4705 0.10294-3.3969-0.41174"/>
        <path d="m391.5 616.89c-2.6763 0.92643-5.2497 1.2352-7.926 1.4411-1.2352-0.10292-2.9851 3.9116-3.191 5.2498"/>
        <path d="m348.9 631.5c0.7206-1.1323 1.4411-1.7499 2.3675-2.0587"/>
        <path d="m351.3 630.16c-0.4117-1.7499 2.7793-2.2646 3.7058-3.294 0.6176-0.51467 1.1323-2.4705 4.3233-3.191 1.7499-0.61762 3.191-2.4705 5.2497-4.3233 0.8235-0.92644 2.3675-1.3382 4.1175-1.4411"/>
        <path d="m365.7 615.34c-0.9264 1.2352-1.647 2.7793-0.6176 3.4998"/>
        <path d="m361.4 622.44c-0.2059 1.2352-0.2059 2.4705-0.1029 3.6028"/>
        <path d="m364.5 624.61c-0.7205 1.1323-1.9557 2.4705-1.4411 4.0145"/>
        <path d="m362 628.21c1.8528 0.5147 2.8822 2.3676 4.2204 2.8822"/>
        <path d="m362.9 627.18c-0.6176-1.0294-1.544-1.544-2.7792-0.61764-1.7499 1.0294-3.3969 2.1617-5.1468 3.191-1.647 1.4411-2.1617 2.8822-1.4412 4.3233"/>
        <path d="m349 634.38c1.3382-1.544 2.7793-2.2646 4.2205-2.1616"/>
        <path d="m351.3 632.64c-0.3088-0.30882-0.8234-0.41173-1.4411-0.51467"/>
        <path d="m354.6 630.99c2.4705-1.3382 3.7057-1.0294 4.1175 0.30882 1.0294 5.5586 2.6763 6.5879 4.2203 8.029"/>
        <path d="m360.1 628.93c-0.4118 0.41173-1.0294 1.0293-1.647 1.7499"/>
        <path d="m365.2 625.74c1.8529-1.647 4.4263-3.3969-0.4117-5.0439"/>
        <path d="m367.6 623.06c2.9852-0.10294 4.6322 0.51467 4.7351 2.1617 0.103 1.1323-0.6176 2.2646-0.5147 3.4998"/>
        <path d="m380 637.88c2.5734-2.4705 4.1174-4.7351 2.3675-8.6467-0.6176-1.9558-1.3381-3.8086-2.0587-5.6615-3.191 0-5.9703 0.51468-8.0291 1.5441"/>
        <path d="m377.3 626.56c-1.5441 1.4411-4.838 2.3676-4.6322 4.9409 0.103 4.838 1.8529 5.8674 2.9852 6.9997 0.4118 0.30882 0.8235 1.544 1.8529 2.7793"/>
        <path d="m370.4 613.49c-0.5147 1.9558-2.6763 4.0145-0.7205 6.2791 0.7205-0.5147 2.6763-0.5147 3.6028-0.72055 1.6469-1.0294 6.0732 0.72055 7.8232-0.51471"/>
        <path d="m388.9 625.84c0.8235-3.0881-0.7205-4.941-3.7056-5.8674"/>
        <path d="m390.6 633.77c-1.4412-0.20588-4.5292-2.3675-4.1175-4.5292-0.3088-2.5734-1.8528-3.4998-1.9557-4.5292-0.2059-0.5147 0.5147-1.7499-0.1029-2.4705"/>
        <path d="m375.7 638.61c0.8235-1.3382 0.8235-2.5734-1.2352-4.0145"/>
        <path d="m369 626.46c0.103 1.4411 0.2059 2.7793 0.8235 4.2204"/>
        <path d="m372.6 631.5c-1.6469-0.51467-2.9851-1.2352-3.4998-0.20585-0.5147 0.41173-1.9558 1.0293-1.5441 2.8822-0.1029 0.8235-3.0881 1.2352-4.2204 1.7499"/>
        <path d="m365.5 636.13c-0.9264 0.72055-0.6176 2.1616-1.0294 3.191 0.2059 2.1616 2.6764 2.5734 5.2498 2.8822"/>
        <path d="m353.9 635.83c0.6176 0.61761 1.7499 1.1323 4.2204 1.4411 1.0293 0.20589 0.9264 0.92643 3.2939 1.647 0.9264 0.10294 2.0587 0.20588 3.088 0.41176"/>
        <path d="m355.4 632.74c-0.6176 0.61761-1.9558 1.1323-2.0587 1.9558-0.2059 0.82349-0.8235 1.647-1.3382 2.4705-0.8235 1.544-1.3382 2.7793-1.2352 3.8086 0.1029 2.1616 2.4705 3.294 3.7057 4.6321"/>
        <path d="m348.8 636.34c-0.3089-0.20588-0.5147-0.41176-0.7206-0.61764"/>
        <path d="m351.2 635.41c-0.7205 0.72055-1.4411 1.4411-1.9558 2.3675-0.4117 1.1323-0.3088 2.0587-0.5147 4.0145"/>
        <path d="m349.3 637.99c0-0.30882-0.2059-0.51469-0.4117-0.72058"/>
        <path d="m349.3 642.62c0.2059-0.61761 1.1323-1.2352 0.6176-1.9558"/>
        <path d="m351.2 649.1c0.2059-0.41173 0.1029-0.92643 0.3088-1.1323"/>
        <path d="m354.7 652.5c0.6176-1.0294 0.7205-1.647 0.3088-1.7499"/>
        <path d="m355.7 651.16-0.5147-0.30882"/>
        <path d="m353 644.37c-1.0293 2.0587 0.103 3.4998 2.8822 4.4262"/>
        <path d="m352.7 638.71c2.2646 1.2352 4.6322 3.8086 6.6909 4.5292 2.2646 0.82349 5.5585 3.7057 7.5143 2.3675"/>
        <path d="m369.7 644.06c-1.5441 0.30882-3.3969 1.544-3.3969 2.3675 0.103 1.4411 4.6322 2.4705 6.485 2.0587"/>
        <path d="m354.7 646.63c0.7205 0.61762 1.7499 0.8235 3.7057-0.10294 2.0587-0.61761 2.7792 0.10294 4.2203 0.51471"/>
        <path d="m366.5 646.84c-2.4705-0.20589-3.7057-0.10295-4.5292 0.72055-1.4411 0.92642-2.8822 0.72054-3.3969 0.82348-0.6176 0.20588-2.3675 1.9558-4.838 0.72055"/>
        <path d="m359.9 654.46c3.3968 0.20585 6.9996 0.10291 10.705-0.41176"/>
        <path d="m363.8 650.34c-0.8235-0.20588-1.2352-0.61763-1.2352-1.3382-0.103 1.4411-0.9264 1.7499-1.544 2.3675-0.7206 0.51471-0.6176 1.3382-1.2352 2.0587"/>
        <path d="m367.5 648.38c-2.0587 0-4.0145-0.10294-5.4556-0.82348"/>
        <path d="m366.3 648.38c0.3088 1.7499 2.6763 1.9558 3.9116 2.5734"/>
        <path d="m365.5 649.93c0.2059-0.41173 0.8235-0.41173 1.2352-0.72055"/>
        <path d="m368.4 649.62c0.5147-0.41173 1.1323-0.61762 1.5441-1.1323"/>
        <path d="m371.4 649.72c-0.9264-1.544 1.9558-2.0587 2.6763-3.7057"/>
        <path d="m371.2 639.94c1.647 1.3382 4.0146 2.0587 5.4557 2.4705"/>
        <path d="m369.6 646.33c2.9851 0 5.6615-1.9558 6.1762-4.2204 0.1029-0.20588 0.8235-0.30882 1.2352-0.41176"/>
        <path d="m395.3 604.64c0.5147-0.51467 1.2352-1.0294 2.3676-1.3382"/>
        <path d="m397.1 605.67c-2.6764 0-4.941 0.41173-6.0733 2.3675"/>
        <path d="m394.3 607.52c0.6176 0.41173 1.0293 0.82349 1.0293 1.3382"/>
        <path d="m423.9 635.62c0.4117-4.7351-8.7496-6.0732-13.279 1.7499-0.6176 1.647-6.1762 1.0294-9.0584 1.8528-2.5735 1.0294-5.1469 2.4705-7.7203 4.0145-1.0294 1.647-4.6322-1.0294-6.6908-0.82348-6.6909 0.72054-6.7938 10.705-0.2059 12.352"/>
        <path d="m399.2 631.81c0.103 2.0587-2.1617 6.0732 1.2352 7.9261"/>
        <path d="m392.9 636.13c1.1323-0.41176 1.4411-2.1617 2.1616-3.0881"/>
        <path d="m390.6 638.71c-0.5147 1.1323 0.1029 1.544 1.2352 1.647"/>
        <path d="m395 657.96c4.0145-3.6028 3.3969-10.088-2.8822-9.676-2.1617 0.20588-3.7057-0.30881-4.7351-1.3382"/>
        <path d="m398 646.84c1.4411 2.5734 2.8822 1.9558 4.6322 1.9558 3.0881-0.10291 4.838-3.191 2.6763-6.485"/>
        <path d="m400.2 648.8c-1.3382 0.41177-2.3676 1.0294-3.0881 1.8529"/>
        <path d="m394.8 651.06c-1.2352 0.41173-2.4705 1.7499-3.9116 2.6763-1.2352 1.8529-2.9851 2.5734-3.9115 3.6028-1.0294 1.544-1.544 4.7351-7.4114 2.9851"/>
        <path d="m394.9 658.99c-2.8822 1.647-7.5144 0.20588-8.132 0.92643"/>
        <path d="m402.4 644.68c-1.0293-0.3088-1.6469-1.7499-2.1616-2.4705"/>
        <path d="m384.4 640.46c2.2646 1.2352 4.2203 0.9264 6.1761-0.61763"/>
        <path d="m387 641.18c-0.8235 1.2352-1.7499 1.7499-2.8822 1.647-1.2352-0.20588-2.9851 1.1323-5.0439 2.7793-1.6469 1.3382-2.2646 2.7793-2.6763 4.3233-0.3088 1.8529-0.6176 2.6763-1.0294 3.3969"/>
        <path d="m377.7 643.65c-0.2058 1.2352 0.2059 2.0587 1.0294 2.3675"/>
        <path d="m376.3 658.57c-1.0294-0.30882-2.2647-1.3382-3.0881-1.647"/>
        <path d="m380.6 653.94c-3.9116 1.8528-4.7351 4.7351-1.7499 8.132"/>
        <path d="m378.3 649.93c-0.2059 1.3382 0.7205 2.2646 1.6469 3.0881 0.8235 0.41175 0.8235 1.544 1.0294 1.8529 1.2352 1.7499 1.4411 2.8822 1.5441 3.9116"/>
        <path d="m406.9 635c1.4412-1.647 4.0146-0.3088 5.9703-0.51468"/>
        <path d="m401.9 636.55c1.2352-1.0293 1.7499-2.3675 1.3381-4.2204"/>
        <path d="m404.3 635.72c-0.4118-0.30879-0.8235-0.61761-1.1324-1.0293"/>
        <path d="m403.8 655.18c-0.4118-1.0294-0.103-2.0587 0.9264-2.9852"/>
        <path d="m401.9 654.56c0.3088-0.51467 1.3381-0.61761 1.9558-0.92641"/>
        <path d="m409.8 650.55c-0.3088 1.9558 1.0293 2.8822 3.9115 2.9852"/>
        <path d="m408.9 653.74c0.5146-2.0587-0.8235-4.0145-3.4999-5.9703"/>
        <path d="m409 652.5c0.3088-0.20588 0.6176-0.41176 0.9264-0.61761"/>
        <path d="m414.3 646.22c-1.544-0.30882-2.7792-0.92643-2.7792-2.5734-0.3088-1.4411-2.1617-2.8822-1.3382-5.7644"/>
        <path d="m407 647.56c1.2352 1.2352 3.7057-0.30882 5.9702-0.30882 5.5586-0.20585 6.9997 2.7793 4.3234 6.0732"/>
        <path d="m418.5 650.85c2.6764-0.10294 4.5292-1.1323 5.6615-3.294"/>
        <path d="m422 651.47-0.9264-1.0294"/>
        <path d="m426.1 650.24c1.647 0 3.0881 0.3088 4.2204 1.2352"/>
        <path d="m429.4 649.62c-0.5147 0.30882-1.0294 0.51469-1.5441 0.72057"/>
        <path d="m432.1 650.34c-0.3089-1.7499 0.8234-2.5734 0.9264-3.6028"/>
        <path d="m413.5 639.63c0.8235 0.72055 1.8529 1.3382 1.647 2.1616 0.3088 1.7499 2.4705 1.9558 3.7057 2.1616 2.4705 1.0294 4.7351 2.1617 3.3969 4.2204"/>
        <path d="m400.5 630.06c-1.3382-0.41173-2.5734-1.2352-3.8087-2.6764"/>
        <path d="m404.5 613.8c-0.9264 0.61762-1.9558 1.8529-3.3969 2.7793-1.4411 0.82348-2.9852 1.544-3.7057 4.1174-0.2059 2.2646 0 3.8086-0.5147 5.2498-0.4118 1.3382-0.6176 2.5734 0 3.4998"/>
        <path d="m397.9 612.56c3.3969 0.82348 4.5292 1.8529 4.2204 3.191"/>
        <path d="m418.8 642.83c0.6176-1.0294 0.6176-1.9558 0.6176-2.9852 1.0294-1.647 6.588 0.61763 7.3085-4.0145"/>
        <path d="m418.9 635.62c0.5146 1.1323 0.6176 2.5734 0.5146 4.2204"/>
        <path d="m396.7 616.99c0.6176 0.92642 0.9265 1.8528 1.1323 2.6764"/>
        <path d="m425.4 647.35c1.6469-2.4705 1.6469-5.8674 4.6321-6.8967"/>
        <path d="m421.5 645.19c0.2058-0.6176 0.5146-1.1323 0.8235-1.544"/>
        <path d="m426.7 632.02c-0.7206-0.41176-1.0294-1.1323-0.7206-2.3675"/>
        <path d="m423.6 633.77c0.8235-0.5147 1.544-1.544 2.2646-2.8822"/>
        <path d="m427.9 625.84c0.103 2.5734 2.2646 2.7793 1.8529 5.6615"/>
        <path d="m422.4 631.3c0.1029-2.7793 1.5441-4.4263 3.294-5.8674 1.0293-1.1323 2.2646-1.7499 1.544-5.3527 0.4118-2.1617 2.9852-4.5292 0.7206-6.0732-2.6764-1.2352-4.941-3.7057-9.0584-3.8086"/>
        <path d="m400.2 627.8c1.2352-2.1616 4.838-3.3969 5.1468-4.2204 0.8235-2.1616 0.2059-4.3233 0.3088-6.382 0.6176-1.7499 2.2646-2.4705 4.1175-2.9852 2.8821-3.294 5.9702-3.7057 9.1613-1.2352"/>
        <path d="m405.8 620.8c-0.4118-0.51467-0.9265-0.82349-1.4411-1.1323"/>
        <path d="m405.3 623.89c0.9264-0.5147 1.7499-0.72056 2.6763-0.61764"/>
        <path d="m396 610.09c5.2497 0.51469 11.838 1.3382 12.249 4.6322"/>
        <path d="m408.8 610.81c-0.7205-1.0294-2.4705-1.5441-3.294-2.2646"/>
        <path d="m405.5 606.08c0.7206 1.2353 1.1324 2.3675 1.8529 3.6028"/>
        <path d="m406.1 604.33c1.2353 1.7499 3.6028 1.8529 3.7058 4.1174"/>
        <path d="m409.3 606.9c0.2059-0.30879 0.4117-0.51467 0.6176-0.82349"/>
        <path d="m413.4 611.64c-1.2352-2.9852-3.9115-2.8822-5.2497-3.6028"/>
        <path d="m411.8 608.44c1.6469 0.61764 2.4704 1.647 2.4704 2.9852"/>
        <path d="m409.4 605.05c2.0587 0.51467 3.8086 1.3382 5.2497 2.7793"/>
        <path d="m413.1 609.06c0.5146-1.3382 2.8822-1.647 5.8674-1.7499"/>
        <path d="m418 614.11c0.9265-2.3676 6.1762-1.3382 9.1614 0.92641"/>
        <path d="m408.3 616.68c1.647-0.82349 3.6027-1.0294 5.5585 0.10294"/>
        <path d="m415.5 612.56c-1.544 1.5441-2.9851 3.0881-1.0293 4.838 3.6028 3.4998 5.7644 5.4556 2.6763 8.5437"/>
        <path d="m424.5 614.83c0.9265 1.3382 0.9265 2.8822 0.3088 4.3233"/>
        <path d="m418.8 618.84c1.4411 0.92644 2.2646 2.3675 2.4705 4.3233 1.0294 4.838-0.3088 5.9703-1.7499 6.9997"/>
        <path d="m410 628.31c3.088 0.72055 5.3526 0.82349 5.8673-0.82349"/>
        <path d="m413.4 628.83c0.7205 0.10294 1.4411 0.41173 1.9558 0.82349"/>
        <path d="m419.4 631.81c1.1323-1.544 0-2.3675-4.7351-3.191"/>
        <path d="m420.2 620.08c1.7499-1.3382 2.0587-3.4998 3.0881-5.2497"/>
        <path d="m427.3 620.18c2.1617-0.20588 3.8087 0.61761 5.1468 2.3675"/>
        <path d="m430.6 618.64c0.6176 0.20588 1.647 0.51468 2.8822 0.8235"/>
        <path d="m437.9 628c-1.441 0.51467-2.3674 1.647-2.8821 3.191-1.3382 1.0294-2.0588 2.5734-2.4705 4.2204"/>
        <path d="m443 641.59c0.7206 0.30882 1.1323 0.8235 1.1323 1.647"/>
        <path d="m440.9 631.91c-0.4118 0.51467-0.9265 0.72055-1.647 0.82349-0.9264 0.82349-1.544 1.7499-1.544 2.8822 0.7205 1.7499 0.8234 3.0881 0.4117 4.2204"/>
        <path d="m438 634.18c0-0.61761-0.2059-1.3382-0.7206-1.9558"/>
        <path d="m440.5 639.63c0.6176-0.92643 1.0294-1.9558 1.0294-3.4998 0.1029-1.2352 0.4117-2.2646 0.9264-2.8822"/>
        <path d="m441.5 637.06c1.0293 0.10294 1.3382 0.72055 1.2352 1.544 0.7206 0.61761 1.0294 1.544 1.3382 2.3675"/>
        <path d="m413.7 618.43c-0.9264 1.8529-2.5734 3.6028-2.7792 5.5586-1.647 3.6028-7.3085 3.294-8.6467 6.0732"/>
        <path d="m423.4 651.88c-3.9116 1.4411-8.2349 3.0881-11.632 6.2791"/>
        <path d="m412.3 656.93c1.2352-0.92644 2.4704-1.8529 3.7057-2.7793"/>
        <path d="m425.1 652.3c-3.4998 1.1323-7.2055 2.5734-10.705 4.4263"/>
        <path d="m427.5 652.4c-5.3527 1.7499-11.22 4.2204-16.47 6.6909"/>
        <path d="m435.5 651.99c-4.5293 1.4411-22.955 7.9261-24.911 7.9261m-0.103-0.41176c7.7202-3.191 15.955-5.6615 23.778-7.9261"/>
        <path d="m435.7 654.15c-4.7351 1.7499-20.381 5.7644-24.087 6.1762 8.1319-2.6763 16.058-4.838 23.984-7.3085"/>
        <path d="m412.9 654.97c-1.2352 5.3527-4.1174 5.7644-7.4114 4.838-1.3381-1.0294-2.6763-1.0294-4.0145-1.0294"/>
        <path d="m410.3 659.71c0.9264-1.544 1.3381-2.9851 1.544-4.5292"/>
        <path d="m409.4 660.02c0.9265-1.2352 1.4411-2.8822 1.647-4.838"/>
        <path d="m408.1 660.22c1.4411-1.2352 1.9558-2.8822 1.8529-5.0439"/>
        <path d="m407.4 660.12c1.0294-1.3382 1.75-2.8822 1.8529-4.7351"/>
        <path d="m406.5 660.12c1.0294-1.3382 1.8529-2.8822 2.2646-4.6321"/>
        <path d="m405.8 659.91 2.3675-4.3233"/>
        <path d="m405.1 659.71c0.6177-1.3382 1.0294-2.8822 1.8529-3.9116"/>
        <path d="m404.7 659.3c0.5147-1.1323 0.7205-2.4705 1.1323-3.4998"/>
        <path d="m404.2 659.19c0.103-1.2352 0.4117-2.3675 0.7206-3.4998"/>
        <path d="m403.6 658.99 0.4117-3.6028"/>
        <path d="m403.2 658.88c-0.2058-0.92643-0.3088-1.8529-0.3088-2.7793"/>
        <path d="m402.4 658.78c-0.4117-0.72055-0.4117-1.4411-0.3088-2.1616"/>
        <path d="m401.8 658.78-0.4117-1.8528"/>
        <path d="m404.5 659.19c-0.2058 1.1323 0.3088 2.0587 1.2353 2.8822"/>
        <path d="m403.5 658.99c-0.2059 1.4411 0.2058 2.8822 1.4411 3.8086"/>
        <path d="m402.1 658.88c0.3088 1.9558 1.2353 3.4998 2.6764 4.4263"/>
        <path d="m404.7 663.31c0.9264-1.0294 1.7499-2.2646 2.6763-3.0881"/>
        <path d="m433.5 654.87c-2.8822 2.9851-6.6909 5.4556-11.426 7.4114-4.0145-0.30882-8.029-1.647-12.043-2.4705"/>
        <path d="m413.7 660.02c3.2939 0.51467 6.485 1.0294 9.779 1.647"/>
        <path d="m424.9 660.94c-2.9852-0.5147-5.8674-1.0294-8.7496-1.4411"/>
        <path d="m418.8 658.88c2.5734 0.41176 4.7351 0.72055 7.2056 1.4411"/>
        <path d="m420.8 658.37c2.2646 0 4.4263 0.51468 6.3821 1.3382"/>
        <path d="m423.7 657.65c1.5441 0.20586 3.1911 0.61761 4.7351 1.3382"/>
        <path d="m429.6 658.16c-0.9265-0.10293-2.0588 0-3.0881 0"/>
        <path d="m430.8 657.24c-2.0588 0.41175-3.9116 0.41175-5.4557 0"/>
        <path d="m426.8 656.83c0.9265 0.20585 2.8823 0 4.838-0.30882 1.4412-0.41174 2.7793-0.92643 4.1175-1.544"/>
        <path d="m405.1 663c3.4999 2.4705 8.7496 4.2204 14.823 4.7351"/>
        <path d="m405.5 662.38c4.2204 3.191 9.9848 4.3233 16.367 4.7351"/>
        <path d="m405.9 662.07c6.7937 4.0145 12.558 4.838 17.911 3.9116"/>
        <path d="m406.2 661.56c6.6908 3.7057 12.867 4.6321 18.734 3.8086"/>
        <path d="m406.6 661.05c7.2054 3.4998 13.69 4.4262 19.867 3.7057"/>
        <path d="m407.1 660.63c6.4849 3.191 13.279 4.2204 20.381 3.4998"/>
        <path d="m408.2 660.22c6.8967 3.294 13.588 3.3969 20.278 3.191"/>
        <path d="m422 662.28c0.7206 0.92642 3.294 0.92642 7.3085 0.30882"/>
        <path d="m423.3 661.77c0.6176 0.92642 3.4998 0.61761 7.1026 0.10294"/>
        <path d="m425.1 660.94c1.3382 0.41173 4.7352-0.41176 8.5438-1.4411"/>
        <path d="m424 661.46c0.9264 0.61761 4.4262 0.10294 8.2349-0.72056"/>
        <path d="m435.1 657.75c-4.2204 1.8528-7.4114 2.8822-9.0584 2.6763"/>
        <path d="m427.2 659.71c2.2646-0.10294 5.2497-1.3382 8.2349-2.5734"/>
        <path d="m428.6 658.88c2.2646-0.51468 4.6321-1.4411 6.9997-2.4705"/>
        <path d="m435.7 655.59c-1.8528 0.92643-3.7057 1.647-5.6615 2.2646"/>
        <path d="m409.3 660.02c4.6321 1.647 9.573 2.6763 14.411 2.9851"/>
      </g>
    </g>
    <g fill-rule="evenodd" stroke-width=".10294">
      <path d="m435 631.09c-0.2059-3.0881-5.0439-7.9261-7.9262-6.9997 2.3676-1.647 8.5438 2.3676 7.9262 6.9997z"/>
      <path d="m371.2 654.46c-0.4117-2.8822 0.9265-5.4556 3.0881-7.6173 2.3676-1.8529 1.8529-4.5292 2.8823-5.3527 1.4411-2.7793 5.2497-4.5292 10.602-5.4556 1.6469-1.9558 3.8086-2.9851 6.7937-2.8822 2.0588-1.7499 3.9117-3.3969 7.7203-3.3969 0.2059 0.92641 0.5147 1.8528 0.9264 2.6763-0.4117-0.51467-1.0293-1.1323-1.4411-1.8528-3.3969-0.30882-5.7644 1.647-7.1026 3.294-2.3676-0.5147-4.4263 0.20585-6.3821 2.4705-5.4555 1.0294-9.3671 2.6763-10.705 5.4556-0.7206 2.4705-1.544 4.5292-3.0881 5.3527-1.7499 1.8528-3.294 4.5292-2.2646 8.4408-0.3088-0.3088-0.6176-0.82349-1.0294-1.1323z"/>
      <path d="m402.4 603.71c-0.9264 0.61761-0.5146 2.1617-1.1323 3.294-4.9409 0.30883-7.7202 2.1617-6.7938 5.5586 1.1323 1.3382 1.3382 2.2646 0.6176 2.8822-1.4411 0.82349-1.9558 2.9851-2.4704 5.3527-1.0294 1.3382-1.647 3.4998-1.647 5.7644-0.103 1.9558-2.9852 3.0881-2.5734 4.7351h0.4117c0-0.72055 0.4117-1.4411 1.1323-2.0587 0.9264-0.51467 1.3382-1.7499 1.647-3.3969-0.103-1.4411 0.3088-2.8822 1.4411-4.4262 0.5147-1.9558 0.7205-4.838 2.7793-5.7644 1.2352-0.51469 0.5147-1.8529-0.6176-3.4998-1.3382-3.294 2.2646-4.1175 6.0732-4.6321 1.5441-0.41176 1.1323-2.8822 2.1617-3.7057-0.3088-0.10294-0.7205-0.10294-1.0294-0.10294z"/>
    </g>
    <g>
      <path d="m398.6 614.62c-0.9264-0.30882-1.7499-0.20588-2.4705 0.41173" fill="none" stroke="#000" stroke-width=".20587"/>
      <path d="m437.4 624.3 1.3381-0.8235" fill="none" stroke="#000" stroke-width=".20587"/>
      <path d="m437 623.99c-0.7205 0.82349-1.544 1.7499-2.3675 2.5734 0.7206 0 1.647-0.51467 2.8822-2.0587z" fill-rule="evenodd" stroke-width=".10294"/>
      <path d="m434.7 626.66c-1.75 1.4411-3.4999 2.9852-4.7351 4.5292-0.9264 1.2352-1.0294 2.9851-0.7206 4.9409 0.2059 1.4411 0.4118 2.8822 0.7206 4.2204 0.4117 0 0.7205 0 1.1323 0.10294 1.647 1.647 5.7644 1.3382 6.9996 1.9558 0.7205 1.0294 1.3382 1.7499 1.7499 1.544 0.7206 0.72056 1.2352 1.544 1.5441 2.3675-0.3089-1.0293 0.3088-1.0293-1.8529-3.4998-0.9264-0.92643-3.088-1.4411-6.4849-1.9558-2.3676-0.82348-2.8823-2.2646-3.0881-4.1174-0.4118-1.7499-0.6177-3.3969 0-5.1468 1.3382-1.647 2.9851-3.294 4.7351-4.9409z" fill-rule="evenodd" stroke-width=".10294"/>
      <path d="m402.4 630.27 27.072 4.2204" fill="none" stroke="#000" stroke-dasharray="0.514682, 0.720553" stroke-width=".20587"/>
      <path d="m430.3 640.05c0.3088 2.3675 1.1323 4.5292 2.8822 6.1762 3.4998 0.10291 5.6614 2.0587 8.7495 2.1616l-0.7205 0.72055c-1.4411 0.10295-2.7793-1.1323-4.1174-1.3382-1.1323-0.41175-3.3969-0.51469-4.4263-1.0294-1.544-2.1616-2.4705-4.4263-2.3675-6.6908z" fill-rule="evenodd" stroke-width=".10294"/>
      <path d="m388.5 630.99 2.3675 3.0881" fill="none" stroke="#000" stroke-dasharray="0.514682, 0.720553" stroke-width=".20587"/>
    </g>
  </g>
  <g fill="none" stroke="#000" stroke-linecap="round" stroke-linejoin="round" stroke-width=".60128">
    <path d="m669.4 516.43a0.17541 0.17541 0 1 1-0.3508 0 0.17541 0.17541 0 1 1 0.3508 0z"/>
    <path d="m672.3 516.31a0.17541 0.17541 0 1 1-0.3508 0 0.17541 0.17541 0 1 1 0.3508 0z"/>
    <path d="m670.4 519.83c0.3084 0.1264 0.5311 0.11822 0.8282-0.0198m-1.3207 3.6792c0.1517-0.81733 0.075-1.8124 0.1981-2.6397m4.7487-4.8221c0.2272 0.42832-0.04 0.90135-0.6374 1.6686 0.7475-0.39622 1.0688-0.33137 1.4267-1.0736m0.3157 0.77649c0.018 0.68884-0.7317 1.1705-1.1943 1.0342m-4.1051 3.5491c0.2964 0.44711 0.1683 0.96713 0.5389 1.4888m-0.1738 2.0002c-0.7383-3e-3 -2.3328 0.0773-3.1009 0.066-0.2154-3e-3 -0.3801-0.10083-0.2782-0.59446m4.1526 0.78337c0.7279 0.24349 0.9701-0.52388 1.4166-0.37825m1.3449-0.0995c2.5321 0.15724 4.1882-0.50106 4.6953-0.90838m-7.2295 0.2266c0.5932 0.81982 1.1986-1.9808 1.6475-2.5741m8.6201 29.475c0.6047-1.2778 0.4229-2.4257 0.7997-3.6884 1.223-3.5489 1.189-7.3887 0.4705-10.163-0.918-3.8854 0.082-8.4506-1.4592-10.684-0.1743-0.25277-0.6167-1.0421-0.8876-1.3003-0.56-0.53393-1.1008-0.77419-1.9615-1.2911-1.0118-0.60771-1.9376-1.265-3.1148-1.7115-0.8135-0.30855-1.3019-1.2913-1.167-3.2554 0.02-0.2887 0.034-0.5417 0.043-0.93528m5.1782 26.15c-0.438-2.909-1.776-3.5012-1.9282-4.8308-0.2115-1.85 1.5345-3.2292 0.9492-5.7508m0.8979 3.9952c0.5334 2.2318 0.1808 6.3528-0.096 8.5142-0.021 0.1614 0.01 0.53826 0 0.676-0.092 1.5784 0.024 0.49902-0.1049 2.953-0.055 1.0476-0.8476 1.3744-1.0533 2.5195-0.049 0.27409-0.095 0.83706-0.067 1.327 0.015 0.26306-0.3029 1.0701-0.3355 1.7933-0.029 0.65459-0.086 1.3346 0.1938 1.4155 0.4641 0.13437 0.5887-0.32905 1.1042-2.146 0.1235-0.43476 0.01-0.85933 0.2043-1.3012m-0.2043 1.3012c0.3024 0.45399 0.4704 1.1067 0.5143 1.6306 0.042 0.50549-0.096 0.97486-0.2683 1.4426-0.115 0.31186-0.2534 0.56535-0.3015 0.81156-0.089 0.45604 0.3962 0.48612 0.5625 0.24745 0.5698-0.81801 0.9092-1.8747 0.9283-2.5978 0.012-0.46669 0.056-0.9424 0.275-1.36m-1.0374 3.7025c-0.3497 0.65194 0.2167 1.3588 0.5896 0.64828 0.1591-0.30305-0.019-0.31669 0.1243-0.65369 0.224-0.52895 0.7309-1.3913 0.623-1.86-0.1584-0.68746-0.2016-1.1385 0.2689-1.452m-0.949 3.6378c-0.055 0.34666 0.3863 0.0409 0.5002-0.10899 0.1105-0.14547 0.1671-0.31571 0.2491-0.44008 0.114-0.17284 0.244-0.33136 0.3398-0.87341 0.048-0.27078 0.1024-1.2803 0.2268-1.8921m-0.2489 2.0116c0.4738 0 0.7539-0.49304 0.7861-0.92536 0.035-0.47608-0.1768-0.95865-0.2767-1.0124 0.4258-1.362 0.2179-3.2773-0.5636-5.0113m-2.7409-15.409c0.4486 0.53218 0.032 1.5709 1.0984 2.912 0.174 0.21884 0.1639 0.64514 0.4946 1.2216m-7.1627-5.2871c3.341 3.7218 7.3406-0.45185 4.6468-3.58m-0.7913 2.4511c-0.1728-0.0347-0.6447 0.8988-0.4835 0.92659 0.3239 0.0558 0.7524-0.61223 0.4755-0.7432m-11.277 0.86485c0.6756 0.30659 0.9211-0.42612 0.4615-0.61002-0.011-4e-3 -0.043-9e-3 -0.063 0.0113m3.5631 0.8935c-1.5236 1.6929-3.6025 1.5735-4.2583 0.81365-0.087-0.10084-0.3088-0.5467-0.3835-0.66125-0.578-0.88612-0.6145-2.1318 0.232-3.7231 0.1781-0.33471 0.069-0.90194 0.01-1.2578m0.5348 5.9403c0.039 2.1093-0.7555 3.5554-1.021 5.9404m0.4382 3.9707c0.2215 0.59554 0.4856 1.1648 0.8565 1.6121m9.6767-6.8746c-0.043-0.73237 0.2055-1.3376 0.6534-1.6335m-6.3562 5.8962c-0.099-0.14632-0.2759-0.24011-0.3967-0.0782-0.1405 0.18843 0.249 0.48191 0.4599 0.39507 0.1486-0.0612 0.2294-0.27925 0.1059-0.40707m5.2647 3.2888c0.225-0.44534 0.3752-0.81659 0.4512-1.2624m-2.1702 4.8535 0.2097-0.21616m-0.7596 0.73163c-1.1368 0.86318-1.6073 1.9744-1.6257 2.9491-1.4007-1.0423-2.3636-2.4968-3.1724-3.7491-0.6122-0.9481-1.2688-1.4466-2.0931-2.3708m-5.3438 6.0427c0.3079 0.21834 0.2619 1.4414 0.6828 2.2354 0.1742 0.32869 0.5253 0.37351 0.8223 0.67192 0.2357 0.81466 0.6278 1.3013 0.4341 1.8636-0.3715-0.29861-0.9726-0.91633-1.3196-1.2432-0.8427-0.79382-1.0304-1.7876-1.6233-2.6818-0.2967-0.37277-0.2154-0.83568 0.099-1.2233 1.6956-2.0922 0.5881-6.7536 0.8289-10.697 0.1137-1.8622 0.07-3.5366 0.8947-5.3183 0.975-1.839 0.8879-5.2503 0.8648-8.5699 0.1018-2.7326 1.3434-4.035 3.7496-4.7232 1.1483-0.50145 2.2359-1.2098 2.9196-2.2738m-3.0298 13.045c0.6732 3.8787-0.782 4.7233-2.175 6.566-0.9235 1.2218-1.1776 2.8839-1.1753 4.7898 0 3.1885-1.2213 5.4428-1.0132 7.3108 0.5768 5.1774 2.9642 11.751 4.1849 13.674m1.0762 3.0269c-1.2807-0.75362-1.6939-2.0405-1.742-4.2852m0.3525 3.2447c0.3274 0.79467 0.5463 1.2253 0.873 1.6211m3.8538-0.0293c-0.1202-1.1157 0.072-1.7286 0.5191-2.3398m-3.4813 2.5529c0.7446 0.0769 0.9801-0.44492 0.8234-1.1868-0.064-0.29998-0.072-0.59505 0-0.89218m-2.4347-0.0714c-1.4841 2.7257 0.8887 9.3528 1.7989 14.196 0.2819 1.4999 0.5704 2.2074 0.3402 3.8246m2.7553-3.0096c1.4813 2.5329 1.9261 3.888 1.1052 4.3313-0.6716 0.36948-1.7076 0.88823-2.45 1.3131m-1.3272-3.6526c-0.721 0.56637-1.053 1.8656-1.6133 2.3557-0.7129 0.62364-1.5975 0.87959-1.9015 1.5162-0.1164 0.24364-0.1261 0.44224 0.046 0.58412m0.046 1.0664c-0.4499 0.18107-0.2344-0.92766-0.046-1.0664l0.6287-0.46498 0.2497 0.41545c-0.2885 0.53723-0.5658 0.7287-0.8317 1.116-0.2295 0.33449-0.2011 0.55595-0.029 0.75788m24.529-2.6062c0.8182 0.3936 1.4836 1.0753 1.9379 1.7395 0.037 0.1486 0.1868 0.49252 0.075 0.81733m-6.8562-4.4659c-0.791 2.5183-0.5132 2.5815 1.7594 3.3679m-5.0938-19.23c-0.6684-0.59705-0.9644-1.2247-0.9619-1.9682m-1.3729 2.3421c-1.4518 3.6266 2.2229 7.3141 3.7474 10.717 0.8873 1.9361 1.5127 4.0987 2.632 6.2964m-5.8721-15.942c-0.2352-0.56681-0.2796-0.68634-0.5073-1.0715-0.5396-0.91294-1.257-1.9936-1.6974-2.8848-0.8746-1.77-1.3617-3.7841-2.317-7.3168-0.2026-0.74944-2.9553-6.614-3.1521-8.0668 0.2087 4.3873-0.5076 6.5991-0.4081 8.23 0.063 1.039 0.6954 3.7317 0.1269 4.9659-0.2897 0.62915-0.3639 1.2968-0.2213 1.4332 0.2463 0.23577 0.1271 0.95663 0.2455 1.1582 0.3801 0.64697 0.6712 2.482 0.5498 3.9435-0.095 1.1463-0.27 1.2423-0.3159 2.1943-0.071 2.6418-0.097 5.4788-0.6087 10.954-0.01 0.10501-0.1791 0.37557-0.1022 0.72293m12.656-14.996c0.076-0.97543-0.046-2.0738-0.1708-2.7364-0.064-0.33997-0.026-0.79974-0.082-1.0958-0.2789-1.4885-0.7956-2.4805-0.8373-5.0067-0.032-1.9556 0.1618-6.4053-0.3485-7.0644m1.533 14.669c2.6093 2.5222 2.5179 11.883 3.3268 14.153 0.997 2.799 2.012 3.058 2.8168 5.2745m-7.1307-18.791c0.1655-0.0685 0.293-0.42143 0.2843-0.6522m-4.0904-47.819c-0.2189-1.339-0.7662-2.7941-0.6888-4.5458 0.072-1.6357 0.1995-3.2883-0.1111-4.7448-0.3039-1.4255-1.1167-2.3805-1.8673-3.51-0.8701-1.3094-1.5448-2.6515-3.5576-2.5806-1.0596 0.0374-2.497 0.82282-2.7398 2.433-0.1405 0.93186 0.8264 1.934 1.9169 1.9398 1.2512 7e-3 1.2503 1.1237 1.5855 1.7445 0.4864 0.94135 1.6729 0.95663 1.898 1.9255 0.415 1.7866-0.5461 3.8179 0.4576 5.5877m-8.9661 69.461c-0.3832 0.81503-1.6237 1.0423-1.5857 1.3629 0.1374 1.161 1.4005 0.4507 2.2219-0.14133 0.8797 0.15622 1.4195-0.7389 1.8704-2.0297 0.3032-0.86833 0.5193-1.7748 1.1-2.0408m-4.1712 2.4325c-0.3211 0.4475-0.8963 1.0453-1.4373 1.4413-0.15 0.10976-0.1213 0.48403 0.4162 0.33805m25.496-1.0749-0.025 0.26303 0.6545 0.42444c0.011 0.27098-0.081 0.73432-0.098 0.86696m-0.7729-1.0768-0.1686 0.35024c0.3052 0.23821 0.6019 0.52937 0.9415 0.72661 0.2142 0.33329-0.3691 0.34704-0.453 0.59696m-0.7122-1.1728-0.1288 0.33444c0.3895 0.36112 0.744 0.60384 1.1338 0.8384-0.032 0.0945-0.063 0.30939 0.016 0.46176 0.4257 0.81505-0.8547 1.2622-1.5509 0.88136-0.5844-0.31964-0.769-0.86139-1.5742-1.0569-0.9034-0.21937-1.8272-3.4621-2.2982-4.0201m3.826 3.1969c0.1052 0.45184 0.2788 0.5164 0.8761 0.78203 0.1624 0.0722 0.5424 0.0118 0.7212 0.21668m-12.711-64.56-0.3718-0.68748m0.4083 1.912c0.013-0.64378-0.082-1.2278-0.015-2.0074m-8.8379-12.468c0.057-0.50968 0.037-0.88379-0.044-1.2178m1.3065 1.4286c0.2237 0.32207-0.2215 0.72068-0.6389 0.4543-0.3553 0.39983-1.0729 0.33355-1.1571-0.0828m-0.1329-2.1724c-0.037-0.26579-0.712-0.33966-1.0102-0.26631m2.55 0.14819c0.2591-0.20624 1.5415-0.42773 1.7059-0.16147m-3.0631 3.7528 0.328-0.2367c0.2389 0.0765 0.551 0.21737 0.791-0.0509 0.1667 0.1924 0.5309 0.25142 0.9087 0.1976 0.052-8e-3 0.094 0.0338 0.1571 0.0587m-2.0934-0.0348c0.4067 0.0912 0.814 0.16732 1.2375-0.0791m-2.4019-2.8452c0.9498-0.0276 1.1095 0.0596 1.3288 0.43186m1.5246-0.0638c0.076-0.52018 0.7017-0.57535 1.4459-0.34979m1.956 1.221c-0.1037 1.7065-0.195 1.7972-1.3132 2.6616-0.7866 0.60808-1.7645 1.1953-3.1916 1.0527-0.3909-0.39561-1.0344-1.1167-1.4044-1.8614-0.4439-0.89369-0.909-1.7929-0.5541-2.9574-0.057-0.30613-0.175-0.61321-0.013-0.8789-0.072-0.59503 0.128-1.6848 0.331-1.8853 1.2297-1.2148 1.4635-1.1149 1.6555-1.9347 0.059-0.25249 0.2177-0.94902 0.4759-1.3856-0.213-0.32903-2.3247 0.83106-3.271 2.8263-0.4292 0.90468-0.1782 1.99-0.5462 3.3394-0.4569 1.6762 1.9395 4.024 0.546 7.5552-0.1362 0.34515-0.1537 0.89504-0.1836 1.0858"/>
    <path d="m635.8 510.55a0.20296 0.20296 0 1 1-0.4059-3e-3 0.20296 0.20296 0 1 1 0.4059 3e-3z"/>
    <path d="m639.2 510.42a0.20296 0.20296 0 1 1-0.4059-3e-3 0.20296 0.20296 0 1 1 0.4059 3e-3z"/>
    <path d="m646.6 594.27c-1.4299 0.4726-1.0673 0.0649-0.5761-0.5629m-0.3117-0.45962c0.468 0.69983 1.1451 1.0072 0.9309 1.4205-0.4826 0.93117-2.1408 0.53998-2.1744-0.5008-0.01-0.21072-0.2005-0.37266-0.3241-0.52182-0.8929-0.30041-0.8776-0.84334-0.8314-1.6181 0.2547-4.2704-1.0684-3.7332-1.1644-5.0093-0.1407-2.454 0.4419-4.4295 0.1517-6.7353m4.2849-31.996c-0.4461-0.22454 0.021-6.6336-1.4098-6.7501 0.7555-0.4996 0.5498-2.6752 0.073-4.2289-0.4533-1.4769-0.057-2.6313 0.7621-4.476m-1.6369-12.629c-0.1322 0.38258 0.101 0.86116 0.6336 0.88092m-4.5439-8.7368c0.5458-0.54575 0.9045-1.1168 0.9803-1.4883m0.5191 0.603c-0.1566 0.37415-0.3784 0.87536-0.6978 1.5231-0.2094 0.42471-0.164 0.99194-0.1741 1.8868-0.012 1.0565 0.044 2.0491 0.1935 2.374m-20.167-6.6918 0.4647 0.0872m9.3905 57.086c-1.072 2.6684 0.1796 8.3085 1.808 15.147 0.4401 2.0089-0.075 3.1619-0.9177 4.7046m3.4096 1.1136c-1.3253 0.57062-1.6561 1.4057-2.3588 2.8199-0.3764 1.1325-1.3512 1.5038-2.5154 1.197 0.1413 0.74463-1.613 1.0846-2.2679 0.335-0.528-0.60428 0.2735-0.85277 0.3708-0.87028 0.7193-0.12948 1.2148-0.4655 1.8251-1.0342m-2.3705 1.6167c-0.4522 0.0246-0.3876-0.54357-0.2119-0.7055 0.6384-0.58843 1.2446-0.95827 1.9666-1.3169m-2.0246 1.3915c-0.4257-0.34123-0.1139-0.71666 0.045-0.89062 0.3459-0.38034 0.7767-0.56866 1.3616-0.92768m-1.3616 0.92768c-0.2164-0.3706-0.2398-0.86956 0.3699-1.1143-0.1161-0.60818 0.3165-1.0663 1.0973-0.98138 0.7156-0.0161 2.2535-1.8838 3.4498-3.2181m-4.5471 4.1994c0.3079 3e-3 0.1465 0.0131 0.4042-0.0174 0.1561 8e-3 0.3856 0.064 0.4378-0.32243m6.9167-2.5548c0.2999-0.59377 0.09-3.0349 0.246-3.4934m1.0072-10.348c0.043 1.4126-0.1795 3.6524-0.7068 5.3607m-0.082-1.1358c0.1769 2.5475 0.324 4.7237 0.7672 7.6545 0.015 0.10335-0.035 0.26406-0.027 0.36828 0.027 0.38296 0.09 0.71239 0.1399 1.1014 0.9502 2.85-1.7533 2.384-3.4131 3.1499m9.5557 1.1159c-0.3693-0.29223-0.5889-0.51773-0.8274-0.66553-1.1324-0.70169-0.7521-0.96412-0.3049-2.9759m4.4298 7.3096c0.3862 0.46389 1.0447-0.29786 0.7042-0.58335-0.6337-0.53116-0.7262-0.83228-1.0371-1.3348m1.0371 1.3348c0.2705 0.0244 0.4025 0.0601 0.5525-0.23678 0.2116-0.16875 0.2265-0.2381 0.2974-0.64247 0.02-0.20238 0.1565-0.35464 0.1375-0.56054-0.035-0.38079-0.2453-0.52799-0.4246-0.90503-0.087-0.18216-0.18-0.53531-0.3051-0.75003-0.123-0.21124-0.3005-0.46422-0.379-0.67584-0.9059-1.963-1.3686-3.6214-2.2022-3.4582 0.4226-0.13902 0.6324-0.40313 0.6035-1.1588 0-0.0443 0.037-0.12413 0.031-0.17153-0.1673-1.4435 0.1716-2.3536 0.4157-3.6037 0.5925-3.0338 1.259-5.8865 1.1543-8.901-0.011-0.31448-0.1218-0.75475-0.1421-1.07-0.113-1.7592-0.4523-3.1068-1.1548-4.803m-5.2702 1.0524c-0.7535 2.8192-0.7808 5.739 0.9034 8.698m2.7944-7.42c0.2249-0.44534 0-0.96655 0.3759-1.0396m1.1434-0.9404c0.3066-1.9055 0.3696-4.155 0.08-4.8881m-0.5042 1.4782c0.052-0.99222 0.6514-1.5266 1.0631-2.655 0.2086-0.57172 0.2681-1.0798 0.3791-1.632 0.2066-1.0271 0.4223-2.0502 0.3887-3.0631m-2.6473 10.019c-0.072-0.59502 0.1181-1.115 0.269-1.6349m-3.5697 0.69562c-0.2147 0.57834 0.086 1.389 0.6796 1.9858-0.1629 0.91796-0.086 1.8029 0.7894 1.6915m-6.4908-3.3998c1.5998 2.6254 1.644 5.7182 0.3518 8.4111m-0.6271-5.372c-0.1068-1.1842-0.2087-2.0889 0.3677-3.2317 0.2732-0.54185 0.3461-1.3269 0.4127-1.9229 0.2387-2.1361 0.2049-3.9629-0.046-6.5652-0.01-0.0982 0.1058-0.43232 0.1058-0.43232s-0.068-0.17711-0.045-0.27523c0.3066-1.3284 0.3723-2.585 0.3074-3.9008m-5.5775 16.085c-1.1688-2.0564-1.798-4.4271-1.607-5.9436m2.7905 3.6986c-0.072-0.74376-0.3675-1.4882-0.9609-2.2337 0.5934 0.74549 1.1881 1.1192 1.7838 1.1956m-4.3384-24.913c-0.3609 0.84032-0.6237 1.7804-0.4722 3.072 0.2194 1.1903-0.7709 2.8026-0.775 3.9922-0.1608 3.4939 0.7636 6.6239 0.8263 10.119-0.1255 2.5111 0.7595 5.2632 2.1998 6.2342m9.176-16.636c2.5323-2.7117 1.8808-4.5278 3.1095-5.4268m-3.7704 5.9809 0.2355-0.22226m-8.3892-5.0615c1.4946 1.2352 1.2577 4.5734 3.2526 5.398m3.1616 0.34017c-0.534 0.52365-0.2896 1.4274-0.1439 2.3945 0.219 1.3128-1.2072 1.4196-1.4403 0.31643-0.1945-0.9203 0.4931-1.8704 0.051-2.432m2.5777-0.46139c-0.4402 0.35689-0.6305 0.97111-0.3356 1.8643 0.2633 1.2015 0.2143 2.4394-1.186 2.6714-0.1426 0.0236-0.3728-0.10572-0.5415-0.10628-1.192 0.0703-1.4922-0.60682-1.5684-1.5234-0.082-0.98616 0.3751-2.0995-0.099-2.7467m14.732 0.51511c0.071 1.1898 0.087 2.5917-0.1382 4.2418-0.053 0.39166-0.2428 0.60224-0.557 1.1528-0.2205 0.38625-0.244 0.49298-0.4188 0.96576-0.1373 0.23095-0.2647 0.51631-0.5305 0.0352-0.011 0.20996 0.032 0.44596-0.086 0.65091-0.2405 0.26557-0.4335 0.48227-0.8166 0.71412-0.1133 0.0685-0.458 0.0325-0.6003-0.11586-0.253 0.20911-0.3922 0.23849-0.5722 0.27325-0.082 0.0156-0.1697-0.3172-0.3071-0.31092-0.079 0.12827-0.2251 0.19061-0.2251 0.19061-0.5781 0.27233-0.6412-0.26119-0.4152-0.69979 1.0136-1.9675 1.3659-3.3583 1.2069-4.4569m2.4635 1.7755c-0.4985 0.8902-0.5553 1.1388-0.6478 1.9791m-1.503 1.2492c0.4742-0.5538 0.9663-1.1499 1.0972-1.6835 0.1912-0.77996 0.019-0.68691 0.6273-1.6882m-0.6177-0.55965c-0.7541 0.80675-0.2619 2.0505-2.2112 4.0843m1.9279-9.2022c-0.6727 0.66689-1.9024 1.0272-2.303 2.7901-0.2713 1.1944-1.7928 1.4054-1.7198 1.8517 0.3028 0.93051 1.0937 0.72358 1.7837 0.17709 0.5387-0.42663 1.0304-1.0882 1.517-1.0749 0.2535 7e-3 0.343 0.52821-0.3629 0.66615m1.109-15.596c-0.5575 0.64581-0.3317 3.809 0.034 6.0407 0.015 0.92325-0.046 4.0148-0.3461 5.2952m1.0661-9.2806c0.1854-1.2941-0.3262-1.5848-1.1902-2.5093-0.8156-1.118-0.5528-2.7644-1.0843-3.1013-0.2771-0.59449-0.022-1.2828-0.091-2.0899-0.1157-1.3375-0.1197-2.551-0.3903-3.2336m4.7114-1.086c1.2356 2.0429 0.6652 6.0826 0.8851 7.1242 0.07 1.5616 1.4319 4.5448 0.4944 8.0524-0.3671 1.5382-0.6591 2.5324-0.9685 4.2207-0.2058 1.1232-0.3948 2.9332-0.7873 3.8361m-21.238-22.231c0.067 2.1564 0.3647 4.3294 1.0278 6.4877 0.5322 1.4888 0.222 3.4279-0.2369 4.356-0.686 1.3877-0.3844 2.7134 0.4342 3.0157m6.4573-1.0799c0.2745 0.26698 0.6354-0.0563 0.4885-0.2552m1.2666-8.8118c1.4752 0.29567 2.1944 5.2862 3.6087 5.5884m-8.7674 0.0154c2.6882-0.63753 1.1485-5.8968 4.4479-5.6807m0.3719-3.1665c-0.4383 0.78501-1.2563 1.0525-2.4855 1.0855-4.814 0.43063-6.5176-0.78051-6.4624-3.8897 0-0.81785 0.094-1.4318-0.1875-1.6672m17.836 0.72708c0.068 0.62226-0.4471 2.8812-1.308 4.0355-0.5971 0.80057-1.6644 0.70339-3.4076 0.67081-1.417-0.0265-3.3201-0.0472-3.4531-0.83408m-1.015-8.2696c0.3905 0.47134 0.7537 0.27385 1.0438-0.29387m-1.3361-1.4038c0.241 0.33038 0.5342 0.55716 0.8962 0.64751l1.3656-1.9736m-8.4616 2.5612c1.0221-0.91804 2.2052-1.5334 3.3399-2.0652 0.6717-0.36948 0.5281-1.6395 0.5329-3.0521m1.1493 5.2458c-1.1171-0.0781-1.6901 0.0527-2.6592 0.27249-1.6392 0.14317-2.2673-1.1076-4.9532 0.14727-1.7913 1.0349-2.6937 2.1162-2.704 3.1053m0.7735-9e-3c-1.211-0.27224-2.7534 0.98481-3.3955 1.8794m0.6703 4.368c0.1711-3.2169-1.6587-5.991-1.3689-9.0582 0.1748-1.8505 0.2197-3.621 1.1921-4.8073 0.6769-0.59251 1.0173-1.589 1.2938-2.1363 0.3354-0.66406 0.8115-1.0156 1.1849-1.3117 0.6038-0.89753-1.1037-1.0751-2.0185 0.13975-0.3001 0.39861-0.8145 0.56493-1.2616 1.2326-1.6516 0.44545-2.0414 1.6271-1.9633 2.5935-0.06-0.34887-0.2717-0.69132-0.3628-0.8462m-1.442 1.9625c-0.6789 3.7367-1.4374 11.366-0.5029 12.379m7.9897-0.25389c-0.449 0.59327-1.2912 1.0144-2.2245 1.7237m3.5828-7.5398c0.6205 0.20114 0.8268 0.54016 1.1898 1.0458m0.1628 2.3897c-0.9155 2.1201-1.7563 3.5392-4.9354 4.1044-1.6706 1.2181-2.8061 1.23-3.8341 0.91115-1.002 0.0591-1.4442-0.11917-1.6932-0.75952-0.3372-0.86793-0.3029-2.3702 0.01-2.6963m8.5988-1.5363 0.9305-0.83056m3.3736 1.6936c-0.2042-0.0364-0.1847 0.0378-0.1727 0.0551 0.3637 0.53234 1.1176 0.17121 0.4806-0.17444m-0.76-6.4377c0.3768 0.0351 0.5967-0.22104 0.7466-0.51793m6.4585 3.2819c0.1946-0.1706 0.2357-0.30331 0.1173-0.66417m-0.224 2.2026c0.1988-0.0737 0.3224-0.22732 0.2674-0.45038m5.4063 2.584c-0.9289 0.20044-0.093 0.71609 0.332 0.37666 0.04-0.0319 0.101-0.14756-0.096-0.0993m-4.6519-8.492c1.4154 5e-3 2.9574 0.65542 4.3743 0.20741m-1.3992-13.897c1.6751 1.5171 1.1322 3.3918 0.1738 3.9858m-0.207-0.11914c1.1967 0.78045 0.1267 2.331-1.2058 2.2423m0.4215-0.0258c-0.1397 0.51295 0.044 0.47747-0.4081 1.6684-0.079 0.30861-0.2883 0.60905-0.35 0.67599-1.2318 1.3343-2.187 2.1503-2.4334 2.2467-0.3512 0.1374-1.4586 0.1587-1.7 0.11594-1.0896-0.19314-2.1333-2.2816-2.5103-3.6539 0.2401-0.57918-0.1341-1.0728-0.378-1.6909-0.2034-0.54031 0.1726-0.57771 0.2038-0.80226 0.022-0.16306-0.1497-0.27805-0.1202-0.39371 0.092-0.36166 0.13-0.48019-0.5402-0.48506m7.1448-4.4054c0.073-0.44868 0.1468-1.0671 0.084-1.2723-0.3658-1.2018-2.5499-1.9794-3.7324-0.96791-0.6039 0.51662-0.7424 0.77036-1.35 0.67242-0.739-0.11911-1.163 0.34669-1.2784 0.89064-0.1601 0.75481-0.7204 0.61726-1.1017 0.99522-0.1944 0.19278-0.4071 0.48629-0.4081 0.80777 0 0.30844 0.2581 0.69169 0.08 0.8849-0.6527 0.70891-0.7597 2.5778 0.5613 2.3946-0.4011-1.0126-0.089-1.5508 0.2494-1.5466 0.2355 3e-3 0.5667 0.28221 0.4376 0.91759m-1.0756 0.61849c-0.1512 0.66865-0.084 0.96108 0.2136 1.0364-0.1505 0.44557-0.077 0.82885 0.362 1.0893-0.01 0.90343 0.2759 1.0323 0.6476 1.2566m-16.319-0.59682c-0.7136-2.0669-0.3655-3.8205 0.2007-3.8152 0.4426 4e-3 0.05 1.5067 0.7129 3.2341l0.166-0.11216c-0.4593-0.28067 0.068-4.7825 1.0053-4.3655 0.6147 0.27352-0.064 1.1134-0.1873 2.3466-0.039 0.46562 0.045 0.99745 0.1463 1.4868 0.1232-0.0989 0.2586-0.11118 0.4437-0.20235-0.1044-0.92968-0.019-1.5944 0.1012-2.3939 0.1662-1.1027 0.4075-1.9616 0.6736-2.0159 0.3336-0.068 0.5565 0.10779 0.4107 0.6872-0.073 0.28861-0.1589 0.53838-0.1734 0.69647-0.068 0.74178-0.1015 2.0168 0.03 2.9412 0.1892 0.0355 0.2857-0.0138 0.3081 0.0578 0.01-1.4667 0.1907-1.4327 0.2431-2.262 0.07-0.81733-0.052-1.3551 0.309-1.4332 0.3975-0.0862 0.6461 0.40022 0.537 1.5891 0.1632 0.80236-0.4165 2.5357 0.3032 4.1887m-2.5075-2.1235c-0.3147 0.0927-0.4342 0.10978-0.696 0.28872m25.498 8.3036c-0.9638-1.3574-3.4857-2.2407-4.1786-3.8181m1.2351-7.5562c-0.078 0.34544 0.053 0.82562-0.015 1.2197-0.1034 0.60466-0.3691 1.1925-0.8673 1.8209 0.2802-0.8035 0.2048-1.486-0.8372-2.1223-1.052-0.64237-1.2137-1.5344-0.6123-3.1681-1.095 1.3864-2.1879 2.0414-3.5019 0.88512m3.9651-2.8104c1.1686-0.28764 1.862 1.1214 1.853 2.7572m-4.9226 0.20482c0.1417-0.083 0.1631-0.24467 0.1045-0.26266-1.6109-0.61318-2.0007 2.4355-3.6032 1.7633m16.062 20.254c0.2287-1.5606 0.5896-3.3456 0.3367-4.7845-0.1525-0.86728-0.7284-2.1389-1.6046-3.1017-0.8737-0.96017-1.7462-1.7092-4.1771-1.1364m-25.536-8.0268-0.5603 0.37225m-0.48 0.25777-0.1851 0.1556c-0.4279 0.35963 0.1247 3.6525 1.267 5.2545 0.035 0.0745-0.4036 0.16971-0.3682 0.24388m17.074-3.5471c0.3372-0.0503 0.6512-0.0914 0.9289-0.26145 0.2995 0.0458 0.6075 0.16092 0.8795-0.0195 0.2893 0.0824 0.567 0.13111 0.9465 0.18375m-2.1531-9e-3c0.5297 0.17652 1.076 0.12504 1.682-0.0583m-8.6681 78.007c0 0.66332-0.4544 0.7591-0.924 0.3076m12.935-15.703c-0.1557 2.0069 0.385 4.4026 1.0481 6.561m-4.4788-30.313c-0.079 1.2636 0.6716 2.6424 1.0394 4.0563 0.4371 2.9011 0.3398 6.3325 0.8864 8.8731-0.01 1.5613 1.7807 3.8891 2.4361 6.3293m4.6481 20.364c-0.1155 0.69837 0.3048 0.57575 0.9765 1.4837m0.4258-1.0811c-0.3071-0.0651-0.8326-0.21106-0.8099-0.64146m-10.841-81.458c-0.1302-0.20316-0.3477-0.36458-0.5748-0.41737-0.4885-0.0302-1.054 0.0324-1.4751-0.0252l0.1795 0.13717c0.8382-0.0703 1.2699-5e-3 1.6022 0.0931m1.8734 0.15171c0.057-0.31051 0.4326-0.43927 0.7871-0.42258 0.365-0.0161 0.3564 0.16975 0.7866 0.26482m-3.125 1.6802c0.2308-0.86244 0.1171-1.6446-0.022-2.0006m0.021 4.6415c0.2975 0.14971 0.5316 0.16904 0.9046 0.0216m2.401-5.057c-0.5202-0.37351-1.4995-0.30187-1.9842-0.0566m-1.5805 0.11622c-0.5938-0.5968-1.2105 0.0131-1.8054-0.28644m1.4158 2.6153c-0.3433 0.24366-0.2856 0.60943-0.059 0.75879 0.1542 0.10161 0.3126-0.0676 0.5732 4e-3 0.3862 0.10622 0.5157 0.13663 0.9215-0.0241 0.1474-0.0583 0.5127 0.10286 0.6816 0.0381 0.1984-0.0759 0.232-0.46014 0.052-0.83547"/>
  </g>
  <g fill="none" stroke="#000">
    <path d="m400 150v400"/>
    <path d="m570 450.03h-340l170-300z"/>
    <path d="m400 550.03-170-100v-200l170-100 170 100v200z" stroke-width="3"/>
    <path d="m570 250h-340l170 300z"/>
    <path d="m230 250 340 200"/>
    <path d="m570 250-340 200"/>
  </g>
  <g>
    <g font-family="DejaVu Sans" font-size="7" text-anchor="middle">
      <g fill="#00f">
        <text x="681.41553" y="96.436401">S</text>
        <text x="642.53973" y="113.90625">NP</text>
        <text x="642.65527" y="133.8656">N'</text>
        <text x="620.69482" y="149.88904">AdjP</text>
        <text x="621.02643" y="164.86829">Adj'</text>
        <text x="620.83063" y="180.1731">Adj</text>
        <text x="678.90869" y="164.86829">N'</text>
        <text x="678.74384" y="180.1731">N</text>
        <text x="664.58008" y="149.88904">N'</text>
        <text x="650.83691" y="164.86829">AdjP</text>
        <text x="651.16888" y="180.1731">Adj'</text>
        <text x="650.97296" y="193.68701">Adj</text>
        <text x="713.92249" y="113.90625">VP</text>
        <text x="715.00079" y="133.8656">V'</text>
        <text x="701.28009" y="149.88904">V'</text>
        <text x="701.16742" y="164.86829">V</text>
        <text x="728.42694" y="149.88904">AdvP</text>
        <text x="728.75891" y="164.86829">Adv'</text>
        <text x="728.58228" y="180.1731">Adv</text>
      </g>
      <g fill="#f00">
        <text x="621.24396" y="193.68701">Colorless</text>
        <text x="679.57324" y="193.68701">ideas</text>
        <text x="651.34729" y="207.52673">green</text>
        <text x="701.66925" y="180.1731">sleep</text>
        <text x="729.82703" y="193.68701">furiously</text>
      </g>
    </g>
    <g fill="none" stroke="#000" stroke-width=".6">
      <path d="m643.2 106.4 38.684-7.8287 32.467 7.8287"/>
      <path d="m642.8 114.9v12.434"/>
      <path d="m621.1 143.3 21.184-8.059 22.335 8.2892"/>
      <path d="m714.4 114.9v12.434"/>
      <path d="m651.3 158 12.664-6.6777 14.737 7.3684"/>
      <path d="m620 151.3v7.5986"/>
      <path d="m620 166.4v7.5985"/>
      <path d="m700.8 151.3v7.5986"/>
      <path d="m728.2 151.3v7.5986"/>
      <path d="m701.5 143.3 12.664-7.5986 14.276 7.5986"/>
      <path d="m701 166.7v7.5986"/>
      <path d="m728.4 167v7.5986"/>
      <path d="m678.9 166.7v7.5986"/>
      <path d="m651.1 166.7v7.5986"/>
      <path d="m620 181.2v7.5985"/>
      <path d="m651.1 181v7.5986"/>
      <path d="m678.9 180.8v7.5986"/>
      <path d="m651.1 194.8v7.5986"/>
      <path d="m728.4 181v7.5986"/>
    </g>
  </g>
  <g font-family="DejaVu Sans" font-size="25" text-anchor="middle">
    <g>
      <text x="674.1507" y="236.1637">Linguistik</text>
      <text x="407.09235" y="125.77258">Philosophie</text>
      <text x="396.7099" y="587.10956">Neurowissenschaft</text>
      <text><tspan x="131" y="251">Psychologie</tspan></text>
      <text><tspan x="655" y="449">Anthro-</tspan><tspan x="655" dy="25">pologie</tspan></text>
      <text><tspan x="137" y="465">Knstliche</tspan><tspan x="137" dy="25">Intelligenz</tspan></text>
    </g>
  </g>
  <g font-family="DejaVu Serif" font-size="55">
    <text x="385" y="95"></text>
    <text x="107" y="226"></text>
  </g>
</svg>
